<svg width="523" height="516" viewBox="0 0 523 516" fill="none" xmlns="http://www.w3.org/2000/svg">
<path d="M309.252 1.66747C334.838 -2.02586 361.852 0.147475 385.585 10.8941C403.732 18.4141 419.572 30.6275 433.558 44.2675C450.985 62.8275 463.945 85.6408 470.652 110.227C473.625 121.507 477.038 132.747 478.252 144.374C481.198 164.107 482.278 184.227 487.932 203.467C493.532 225.987 504.665 246.521 514.185 267.521C520.585 280.961 523.718 296.014 522.158 310.907C521.478 333.241 511.065 354.441 495.692 370.361C487.958 377.947 478.425 383.267 469.918 389.907C448.345 406.414 427.252 423.561 406.905 441.574C386.732 459.441 365.505 477.014 340.158 487.001C310.052 502.267 277.105 512.547 243.265 514.187C220.052 516.814 196.638 513.907 173.758 509.907C164.265 508.321 155.132 505.241 145.812 502.934C113.012 494.654 81.9983 478.454 57.3983 455.107C42.5583 441.481 31.8382 424.174 21.3449 407.161C6.17158 382.467 1.30492 353.041 0.504916 324.507C-0.681751 315.121 0.558249 305.707 0.838249 296.321C2.31825 273.547 9.55825 251.734 16.9183 230.294C29.3049 200.721 43.7583 171.881 52.5183 140.907C60.0116 111.974 73.5449 84.1075 94.4783 62.4808C106.892 49.9875 122.092 40.1475 138.865 34.6408C163.505 27.3608 189.425 27.8408 214.718 24.7208C232.412 22.4541 249.132 15.9341 266.332 11.5075C280.372 7.16081 294.665 3.60081 309.252 1.66747ZM324.572 25.3341C328.998 27.8675 334.158 28.1208 339.038 29.1208C351.825 32.1875 364.945 34.1608 377.038 39.5741C396.358 46.2941 413.558 58.1341 428.025 72.4541C432.638 77.0541 435.465 84.0675 442.198 86.0408C433.892 64.0541 416.065 46.4408 395.478 35.6141C383.385 30.4675 370.705 26.2141 357.558 25.0008C346.585 24.2675 335.425 22.8008 324.572 25.3341ZM273.025 43.9875C278.025 45.1075 283.198 44.6541 288.225 45.6275C299.078 47.6541 309.838 50.2275 320.465 53.2541C333.812 56.4808 346.345 62.2675 358.625 68.2941C382.812 80.6141 404.905 97.2141 422.812 117.654C451.798 150.814 470.705 192.787 475.732 236.587C477.412 246.614 476.505 256.801 476.932 266.907C476.732 288.707 471.772 310.134 465.452 330.881C461.678 341.374 456.932 351.508 453.398 362.094C459.745 354.001 462.692 344.014 466.638 334.681C470.718 325.081 472.958 314.867 475.238 304.734C485.892 256.734 478.532 205.267 456.278 161.561C427.412 104.201 371.958 60.7608 308.998 47.5741C297.252 45.0675 285.078 42.0275 273.025 43.9875ZM158.212 50.3075C152.238 52.1208 145.598 55.1208 144.012 61.8008C153.745 63.6541 162.412 58.1341 171.278 55.1608C176.065 53.5741 180.865 51.7341 184.585 48.2008C175.865 45.6141 166.665 47.7608 158.212 50.3075ZM265.372 56.2275C283.118 56.9741 300.452 61.2408 317.678 65.2675C342.478 72.7875 366.012 84.6941 386.412 100.721C435.332 138.521 464.945 199.787 464.398 261.574C464.652 281.654 460.585 301.454 455.492 320.774C451.625 332.401 446.785 343.681 442.665 355.214C449.465 345.734 452.732 334.427 456.918 323.681C460.132 314.934 462.078 305.801 463.652 296.641C473.452 245.747 462.145 191.321 433.665 148.094C405.718 104.787 360.692 72.9475 310.598 60.9075C295.665 58.3075 280.625 54.6275 265.372 56.2275ZM162.665 92.1741C133.958 109.774 109.785 134.801 93.5716 164.334C86.7316 169.601 82.1049 177.254 80.5849 185.747C77.2649 191.961 75.1716 198.721 73.3582 205.494C69.4516 220.761 66.4649 236.361 66.0916 252.161C65.2383 281.787 71.0249 311.654 83.0249 338.774C103.798 386.774 144.545 425.641 193.438 444.187C218.078 453.454 245.012 458.788 271.265 454.428C287.385 454.054 303.532 451.881 318.918 446.907C336.145 442.027 352.705 434.721 367.785 425.054C410.732 398.574 442.105 354.401 453.598 305.334C461.852 272.854 460.892 238.227 451.318 206.134C434.025 142.801 382.385 90.2275 319.398 71.7341C303.185 67.1341 286.532 63.2941 269.585 63.4408C232.118 61.9875 194.625 72.8008 162.665 92.1741ZM71.9183 172.947C67.9049 182.547 63.6783 192.107 61.0783 202.214C57.8783 216.014 54.5049 229.921 53.9316 244.134C51.6116 275.081 56.8116 306.441 67.9583 335.347C92.3583 399.147 149.625 449.414 216.358 464.414C231.452 467.147 246.772 469.961 262.158 468.401C242.732 466.881 223.398 463.694 204.625 458.387C171.292 448.054 140.412 429.521 116.185 404.347C87.5449 375.374 68.0249 337.681 60.3049 297.721C56.2249 279.107 56.1716 259.961 56.9316 241.014C58.2916 224.094 62.1849 207.507 67.1983 191.334C70.8383 180.174 76.1183 169.654 80.3316 158.721C77.0516 163.161 74.1049 167.867 71.9183 172.947ZM499.665 288.761C499.105 294.694 498.478 301.307 502.945 306.014C504.372 304.681 506.078 303.547 507.092 301.814C508.945 295.254 507.358 287.894 502.785 282.774C501.585 284.654 499.945 286.454 499.665 288.761ZM45.5983 315.401C44.7449 326.014 46.9449 336.587 49.3983 346.854C55.5049 372.494 69.4116 395.574 86.0782 415.721C93.7849 425.361 103.625 432.934 113.225 440.574C125.905 449.414 139.358 457.414 153.985 462.614C162.185 465.534 170.412 469.121 179.252 469.347C174.972 465.254 169.558 462.747 164.452 459.867C131.252 441.467 100.332 417.307 78.9049 385.601C68.1316 371.214 61.2783 354.401 54.6249 337.827C51.6383 330.347 50.0783 322.214 45.5983 315.401Z" fill="#455BA4"/>
<path d="M300.225 192.215C312.158 181.615 328.452 176.815 344.238 177.015C359.252 176.681 374.558 179.081 388.172 185.668C396.132 189.148 403.358 194.001 410.318 199.148C404.705 207.255 398.812 215.175 393.225 223.308C381.438 215.335 368.785 207.908 354.465 205.801C343.945 204.441 331.985 204.361 323.198 211.215C315.145 217.415 313.745 230.068 319.638 238.161C325.492 244.361 333.972 247.068 341.945 249.375C358.385 254.415 375.718 257.241 391.025 265.415C402.158 271.215 411.585 281.375 414.292 293.895C416.838 305.681 415.892 318.441 410.745 329.415C405.345 341.228 394.638 350.121 382.598 354.615C361.052 362.361 337.158 360.628 315.558 354.001C301.492 349.015 288.318 341.321 277.398 331.121C283.758 323.468 290.238 315.895 296.612 308.255C311.572 321.468 330.465 331.775 350.905 331.495C360.198 332.015 370.092 330.148 377.452 324.135C384.332 318.455 385.852 307.775 381.878 300.001C377.545 292.788 369.252 289.388 361.598 286.908C341.812 280.961 320.465 278.375 302.825 266.841C292.052 288.468 267.318 298.921 244.212 299.841C230.252 299.868 216.292 299.881 202.332 299.801C202.252 318.855 202.265 337.908 202.358 356.961C191.798 356.975 181.225 356.948 170.665 356.961C170.945 297.788 170.518 238.601 170.878 179.428C196.692 179.521 222.505 179.415 248.318 179.508C265.025 180.161 281.478 186.615 293.772 198.041C296.505 197.015 297.958 194.001 300.225 192.215ZM202.252 207.935C202.358 228.975 202.238 250.015 202.318 271.041C206.798 272.375 211.625 271.428 216.238 271.695C230.025 271.348 244.358 273.241 257.545 268.175C267.265 264.028 275.145 254.841 276.385 244.161C277.865 233.281 274.172 220.788 264.465 214.721C256.238 209.001 245.985 207.881 236.238 207.855C224.905 207.935 213.585 207.788 202.252 207.935Z" fill="#455BA4"/>
<path d="M117.091 179.44C127.625 179.467 138.158 179.454 148.691 179.48C148.691 238.64 148.638 297.787 148.718 356.947C140.105 356.974 131.491 356.92 122.865 357.014C120.931 356.867 118.811 357.28 117.011 356.334C117.185 297.374 117.051 238.4 117.091 179.44Z" fill="#455BA4"/>
</svg>
